<?xml version="1.0" standalone="no"?>
<!DOCTYPE svg PUBLIC "-//W3C//DTD SVG 20010904//EN"
 "http://www.w3.org/TR/2001/REC-SVG-20010904/DTD/svg10.dtd">
<svg version="1.0" xmlns="http://www.w3.org/2000/svg"
 width="160.000000pt" height="160.000000pt" viewBox="0 0 160.000000 160.000000"
 preserveAspectRatio="xMidYMid meet">
<metadata>
Created by potrace 1.14, written by Peter Selinger 2001-2017
</metadata>
<g transform="translate(0.000000,160.000000) scale(0.100000,-0.100000)"
fill="#000000" stroke="none">
<path d="M1007 1549 c-16 -12 -44 -54 -63 -93 -19 -39 -43 -81 -52 -94 l-18
-23 -75 39 c-97 51 -122 57 -143 34 -15 -17 -14 -25 14 -107 16 -49 29 -89 27
-90 -1 -1 -50 -24 -109 -50 -119 -52 -139 -69 -141 -116 -2 -27 4 -37 38 -61
22 -15 56 -30 75 -32 19 -3 37 -5 40 -6 3 0 -18 -11 -47 -23 -28 -12 -63 -36
-77 -54 -27 -32 -99 -219 -110 -283 -3 -19 -10 -60 -16 -90 -24 -125 -24 -250
1 -250 6 0 7 5 4 10 -3 6 1 13 10 17 10 3 20 0 25 -6 5 -9 9 -6 13 8 7 30 27
26 27 -5 0 -14 3 -23 8 -21 4 3 32 -19 62 -49 31 -30 80 -65 113 -79 39 -18
57 -32 57 -44 0 -10 5 -32 11 -50 l11 -31 98 0 c108 0 107 -1 112 68 2 28 8
36 37 48 19 8 53 29 75 47 23 19 49 36 59 40 9 3 17 12 17 20 0 7 6 19 12 26
7 6 13 15 14 19 4 31 30 102 37 102 5 0 6 -7 3 -16 -3 -8 -2 -12 4 -9 9 5 8
39 -6 165 -6 60 -34 152 -65 211 -10 21 -19 48 -19 59 0 28 -37 100 -55 106
-12 5 -12 10 -3 27 6 11 14 32 19 46 l7 26 2 -25 2 -25 7 25 c5 14 4 33 -1 43
-6 12 -5 17 6 17 21 0 32 46 16 65 -7 8 -19 15 -26 15 -26 0 -13 15 47 55 87
57 146 126 165 192 9 30 13 65 10 78 -15 60 -109 130 -187 141 -36 5 -49 2
-72 -17z"/>
</g>
</svg>
